<svg width="64" height="64" viewBox="0 0 64 64" fill="none" xmlns="http://www.w3.org/2000/svg">
  <!-- ic_leaf_soft: warm peach line-art leaf icon for Jamkkan app -->
  <path d="M22.6 49.2C31.8 39.9 38.3 29.1 41.1 16.2" stroke="#D96F50" stroke-width="3.2" stroke-linecap="round"/>
  <path d="M34.1 29.1C27.4 28.5 22.4 24.2 20.7 18.2C27.4 18.8 32.4 23.1 34.1 29.1Z" stroke="#D96F50" stroke-width="3" stroke-linejoin="round"/>
  <path d="M29.3 37.7C22.9 39.1 17.1 36.3 14.2 31.1C20.6 29.7 26.4 32.5 29.3 37.7Z" stroke="#D96F50" stroke-width="3" stroke-linejoin="round"/>
  <path d="M42.3 23.7C48.5 21.4 53.1 16.5 54.2 10.5C48.2 12.5 43.6 17.3 42.3 23.7Z" stroke="#D96F50" stroke-width="3" stroke-linejoin="round"/>
  <path d="M38.2 34.5C44.7 35.4 50.3 32.7 53.1 27.4C46.6 26.5 41 29.2 38.2 34.5Z" stroke="#D96F50" stroke-width="3" stroke-linejoin="round"/>
</svg>
